<svg xmlns="http://www.w3.org/2000/svg" width="18" height="11" viewBox="0 0 18 11" fill="none">
  <path fill-rule="evenodd" clip-rule="evenodd" d="M17.6622 3.32978L13.7465 0.197218C13.5869 0.0695525 13.3887 0 13.1843 0H4.8157C4.61134 0 4.41306 0.0695527 4.25348 0.197218L0.337774 3.32978C0.124281 3.50058 0 3.75916 0 4.03256V6.76744C0 7.04084 0.124281 7.29942 0.337774 7.47022L4.25348 10.6028C4.41306 10.7304 4.61134 10.8 4.8157 10.8H12.3275C12.5052 10.8 12.6789 10.7474 12.8267 10.6488L17.5992 7.46718C17.8496 7.30026 18 7.01925 18 6.71833V4.03256C18 3.75916 17.8757 3.50058 17.6622 3.32978ZM9 8.9998C7.01178 8.9998 5.4 7.38803 5.4 5.3998C5.4 3.41158 7.01178 1.7998 9 1.7998C10.9882 1.7998 12.6 3.41158 12.6 5.3998C12.6 7.38803 10.9882 8.9998 9 8.9998Z" fill="white"/>
  <path d="M7.2 5.3998C7.2 6.39392 8.00589 7.1998 9 7.1998C9.99411 7.1998 10.8 6.39392 10.8 5.3998C10.8 4.40569 9.99411 3.5998 9 3.5998C8.00589 3.5998 7.2 4.40569 7.2 5.3998Z" fill="white"/>
</svg>